<svg id="Layer_1" data-name="Layer 1" xmlns="http://www.w3.org/2000/svg" viewBox="0 0 300 120"><defs><style>.cls-1,.cls-2,.cls-6,.cls-7{stroke:#fff;stroke-width:0.25px;}.cls-1{stroke-linecap:round;}.cls-13,.cls-3{opacity:0.5;}.cls-4,.cls-6{opacity:0.75;}.cls-10,.cls-11,.cls-12,.cls-13,.cls-14,.cls-5,.cls-6,.cls-7,.cls-8,.cls-9{fill:#0e0e0e;}.cls-10,.cls-11,.cls-12,.cls-13,.cls-14,.cls-6,.cls-8,.cls-9{isolation:isolate;}.cls-8{opacity:0.4;}.cls-9{opacity:0.6;}.cls-10{opacity:0.8;}.cls-11{opacity:0.9;}.cls-12{opacity:0.3;}.cls-14{opacity:0.7;}.cls-15{fill:#fff;}</style></defs><title>Artboard 1</title><g id="controls"><g id="play_pause" data-name="play pause"><g id="play"><g id="Polygon"><path d="M16.48,8.49a.56.56,0,0,1,0,1l-11.38,7c-.47.29-.85.07-.85-.48V2c0-.55.38-.77.85-.48Z"/></g></g></g><g id="pause"><rect x="23" y="1.01" width="4.2" height="16" rx="1" ry="1"/><rect x="32.8" y="1.01" width="4.2" height="16" rx="1" ry="1"/></g><g id="fullscreen"><g id="enter"><path d="M81,1.39a1,1,0,0,1,1-1h5.41c.55,0,.68.32.29.71l-6,6c-.39.39-.71.26-.71-.29Z"/><path d="M81,17.18a1,1,0,0,0,1,1h5.41c.55,0,.68-.32.29-.71l-6-6c-.39-.39-.71-.26-.71.29Z"/><path d="M98.8,1.39a1,1,0,0,0-1-1H92.38c-.55,0-.68.32-.29.71l6,6c.39.39.71.26.71-.29Z"/><path d="M98.8,17.18a1,1,0,0,1-1,1H92.38c-.55,0-.68-.32-.29-.71l6-6c.39-.39.71-.26.71.29Z"/></g></g><g id="exit"><path d="M112.7,5a1,1,0,0,0,1,1h4.1c.55,0,.68-.32.29-.71L113.41.62c-.39-.39-.71-.26-.71.29Z"/><path d="M105.6,6a1,1,0,0,0,1-1V.89c0-.55-.32-.68-.71-.29l-4.72,4.68c-.39.39-.26.71.29.71Z"/><path d="M106.6,13.08a1,1,0,0,0-1-1h-4.1c-.55,0-.68.32-.29.71l4.68,4.68c.39.39.71.26.71-.29Z"/><path d="M113.7,12.08a1,1,0,0,0-1,1v4.1c0,.55.32.68.71.29l4.68-4.68c.39-.39.26-.71-.29-.71Z"/></g><g id="volume"><path d="M67,5.78a3.51,3.51,0,0,1-1.8.6H62a1,1,0,0,0-1,1v5.73a1,1,0,0,0,1,1h3.15a6.28,6.28,0,0,1,1,0,8.5,8.5,0,0,0,.81.63l3.54,2.6c.44.33.81.14.81-.41V3.51c0-.55-.36-.73-.8-.4Z"/><g id="volume-2"><g id="soundbars"><path class="cls-1" d="M73.89,2.51s3.95-.81,3.87,7.73S73.89,18,73.89,18"/><path class="cls-1" d="M72.6,6.39s2.63-.38,2.57,3.85-2.58,3.86-2.58,3.86"/></g></g></g><g id="closed_captions" data-name="closed captions"><path class="cls-2" d="M128.7,8.59c-6.17-4.21-6.46,7.77,0,3.92"/><path class="cls-2" d="M135.23,8.59c-6.17-4.21-6.46,7.77,0,3.92"/><path d="M122.17,3.36h15.69V16.44H122.17ZM120.85,2V17.74h18.32V2Z"/></g><g id="muted"><path d="M47,5.78a3.51,3.51,0,0,1-1.8.6H42a1,1,0,0,0-1,1v5.73a1,1,0,0,0,1,1h3.15a6.28,6.28,0,0,1,1,0,8.5,8.5,0,0,0,.81.63l3.54,2.6c.44.33.81.14.81-.41V3.51c0-.55-.36-.73-.8-.4Z"/><line class="cls-1" x1="52.83" y1="6.98" x2="58.22" y2="12.36"/><line class="cls-1" x1="52.83" y1="12.36" x2="58.22" y2="6.98"/></g><g id="skip_forward" data-name="skip forward"><g id="play_pause-2" data-name="play pause-2"><g id="play-2"><path id="Polygon-2" d="M192.17,2.17l-4.33,2.16V0Z"/></g></g><g id="play_pause-3" data-name="play pause-3"><g id="play-3"><path id="Polygon-3" d="M194.9,2.17l-4.33,2.16V0Z"/></g></g><path class="cls-2" d="M190,2.17a8.15,8.15,0,0,0-8.16,8.14s0,0,0,0"/><path class="cls-2" d="M181.85,9.84A8.15,8.15,0,0,0,190,18h0"/><path class="cls-2" d="M189.63,18a8.15,8.15,0,0,0,8.16-8.14s0,0,0,0"/></g><g id="skipback"><path class="cls-2" d="M162.69,9.66a8.15,8.15,0,0,0,8.14,8.16h0"/><path class="cls-2" d="M170.37,17.81a8.15,8.15,0,0,0,8.16-8.14s0,0,0,0"/><path class="cls-2" d="M178.53,10a8.15,8.15,0,0,0-8.14-8.16h0"/><g id="play_pause-4" data-name="play pause-4"><g id="play-4"><path id="Polygon-4" d="M166.59,2.17l4.32,2.16V0Z"/></g></g><g id="play_pause-5" data-name="play pause-5"><g id="play-5"><path id="Polygon-5" d="M163.87,2.17l4.3,2.16V0Z"/></g></g></g><g id="close_captions" data-name="close captions"><rect x="141.17" y="3.01" width="18" height="14" rx="2" ry="2"/><path d="M146.36,13.79a2.69,2.69,0,0,1-2.14-1A3.87,3.87,0,0,1,144.34,8c.51-.56,2-1.65,4.64.16l-.56.83c-1.43-1-2.62-1.09-3.34-.31a2.89,2.89,0,0,0-.08,3.47c.7.86,1.92.83,3.45-.08l.51.86A5.13,5.13,0,0,1,146.36,13.79Z"/><path d="M153.9,13.79a2.69,2.69,0,0,1-2.14-1A3.87,3.87,0,0,1,151.88,8c.51-.56,2-1.65,4.64.16L156,9c-1.43-1-2.62-1.09-3.34-.31a2.89,2.89,0,0,0-.08,3.47c.7.86,1.92.83,3.45-.08l.51.86A5.13,5.13,0,0,1,153.9,13.79Z"/></g><path d="M218.63,9.39a1.35,1.35,0,0,0-1-1.24l-1.85-.46a.7.7,0,0,1-.46-1.1l1-1.64a1.35,1.35,0,0,0-.15-1.58h0a1.35,1.35,0,0,0-1.56-.19l-1.64,1a.7.7,0,0,1-1.1-.46l-.46-1.85a1.35,1.35,0,0,0-1.24-1h0a1.35,1.35,0,0,0-1.24,1l-.46,1.85a.7.7,0,0,1-1.1.46l-1.64-1a1.35,1.35,0,0,0-1.56.19h0A1.35,1.35,0,0,0,204,4.93l1,1.64a.7.7,0,0,1-.46,1.1l-1.85.46a1.35,1.35,0,0,0-1,1.24h0a1.35,1.35,0,0,0,1,1.24l1.85.46a.7.7,0,0,1,.46,1.1l-1,1.64a1.35,1.35,0,0,0,.19,1.56h0a1.35,1.35,0,0,0,1.56.19l1.64-1a.7.7,0,0,1,1.1.46l.46,1.85a1.35,1.35,0,0,0,1.24,1h0a1.35,1.35,0,0,0,1.24-1l.46-1.85a.7.7,0,0,1,1.1-.46l1.64,1a1.35,1.35,0,0,0,1.56-.19h0a1.35,1.35,0,0,0,.19-1.56l-1-1.64a.7.7,0,0,1,.46-1.1l1.85-.46a1.35,1.35,0,0,0,1-1.24Zm-5.68,0a2.82,2.82,0,1,1-2.8-2.84h0a2.82,2.82,0,0,1,2.78,2.82Z"/><rect x="223" y="2.84" width="14" height="14" rx="2" ry="2"/><g id="loop"><path d="M254.22,6.53a5.72,5.72,0,1,1-8.7-.27L243.9,4.64a8,8,0,1,0,11.94.26Z"/><g id="play_pause-6" data-name="play pause-6"><g id="play-6"><g id="Polygon-6"><path d="M251.3,3.37a.72.72,0,0,1,.85-.85l5.52.77c.54.08.67.46.28.84l-5,5c-.39.39-.77.26-.84-.28Z"/></g></g></g></g><g id="loop_off" data-name="loop off" class="cls-3"><path d="M274.38,6.78a5.72,5.72,0,1,1-8.7-.27l-1.62-1.62A8,8,0,1,0,276,5.15Z"/><g id="play_pause-7" data-name="play pause-7"><g id="play-7"><g id="Polygon-7"><path d="M271.46,3.62a.72.72,0,0,1,.85-.85l5.52.77c.54.08.67.46.28.84l-5,5c-.39.39-.77.26-.84-.28Z"/></g></g></g></g></g><g id="big_play" data-name="big play"><g id="big_play_-_light" data-name="big play - light"><g id="Polygon-8" class="cls-4"><path class="cls-5" d="M60.27,77a1.06,1.06,0,0,1,0,2L30,96.5c-1,.55-1.73.1-1.73-1v-35c0-1.1.78-1.55,1.73-1Z"/></g><path id="Ellipse" class="cls-6" d="M2.5,79A37.5,37.5,0,1,1,40,116.51,37.5,37.5,0,0,1,2.5,79Z"/></g><g id="big_play_hover" data-name="big play hover"><g id="Polygon2"><path class="cls-5" d="M140.27,77a1.06,1.06,0,0,1,0,2L110,96.5c-1,.55-1.73.1-1.73-1v-35c0-1.1.78-1.55,1.73-1Z"/></g><path id="Ellipse2" class="cls-7" d="M82.5,79a37.5,37.5,0,1,1,37.5,37.5A37.5,37.5,0,0,1,82.5,79Z"/></g><g id="Loading"><circle class="cls-5" cx="201.88" cy="47.13" r="8.13"/><circle class="cls-8" cx="233.88" cy="79.01" r="5"/><circle class="cls-9" cx="201.88" cy="110.88" r="6"/><circle class="cls-10" cx="170.13" cy="79.01" r="7"/><circle class="cls-11" cx="178.25" cy="56.34" r="7.5"/><circle class="cls-12" cx="226.33" cy="56.09" r="4.5"/><circle class="cls-13" cx="225.75" cy="102.76" r="5.5"/><circle class="cls-14" cx="178.25" cy="102.76" r="6.5"/></g></g><g id="Guides"><g id="play_pause-8" data-name="play pause-8"><g id="play-8"><g id="Polygon-9"><path class="cls-15" d="M298.81,9.55a.79.79,0,0,1-1.1.64l-4.86-1.82c-.51-.19-.55-.58-.07-.85L299,4c.48-.27.79-.06.7.49Z"/></g></g></g><path id="replay" class="cls-15" d="M290.17,16.09a6.22,6.22,0,0,1-2.9-.71,5.94,5.94,0,0,1-3.2-5.24,6.11,6.11,0,0,1,11.87-1.89l.1-.15,2.13,1.06a8.1,8.1,0,0,0-16.12,1,7.93,7.93,0,0,0,4.26,7,8.22,8.22,0,0,0,3.83,1,8.13,8.13,0,0,0,6.57-3.32l-1.8-.93A6.14,6.14,0,0,1,290.17,16.09Z"/></g></svg>